<?xml version="1.0" encoding="utf-8"?>
<!-- Generator: Adobe Illustrator 29.3.1, SVG Export Plug-In . SVG Version: 9.03 Build 55982)  -->
<!DOCTYPE svg PUBLIC "-//W3C//DTD SVG 1.1//EN" "http://www.w3.org/Graphics/SVG/1.1/DTD/svg11.dtd" [
	<!ENTITY ns_extend "http://ns.adobe.com/Extensibility/1.0/">
	<!ENTITY ns_ai "http://ns.adobe.com/AdobeIllustrator/10.0/">
	<!ENTITY ns_graphs "http://ns.adobe.com/Graphs/1.0/">
	<!ENTITY ns_vars "http://ns.adobe.com/Variables/1.0/">
	<!ENTITY ns_imrep "http://ns.adobe.com/ImageReplacement/1.0/">
	<!ENTITY ns_sfw "http://ns.adobe.com/SaveForWeb/1.0/">
	<!ENTITY ns_custom "http://ns.adobe.com/GenericCustomNamespace/1.0/">
	<!ENTITY ns_adobe_xpath "http://ns.adobe.com/XPath/1.0/">
]>
<svg version="1.1" id="레이어_1" xmlns:x="&ns_extend;" xmlns:i="&ns_ai;" xmlns:graph="&ns_graphs;"
	 xmlns="http://www.w3.org/2000/svg" xmlns:xlink="http://www.w3.org/1999/xlink" x="0px" y="0px" viewBox="0 0 158 158"
	 style="enable-background:new 0 0 158 158;" xml:space="preserve">
<style type="text/css">
	.st0{fill:url(#SVGID_1_);}
	
		.st1{opacity:0.25;clip-path:url(#SVGID_00000037674617321619351260000012456479543614572977_);fill:url(#SVGID_00000119112008275566611860000017389790606815029640_);}
	
		.st2{opacity:0.25;clip-path:url(#SVGID_00000037674617321619351260000012456479543614572977_);fill:url(#SVGID_00000017476371141933119870000017361871299920873109_);}
	
		.st3{opacity:0.25;clip-path:url(#SVGID_00000037674617321619351260000012456479543614572977_);fill:url(#SVGID_00000098926930886817162760000006934944437574150804_);}
</style>
<metadata>Created by potrace 1.11, written by Peter Selinger 2001-2013<sfw  xmlns="&ns_sfw;">
	<slices></slices>
	<sliceSourceBounds  bottomLeftOrigin="true" height="158" width="135.7" x="11.4" y="0"></sliceSourceBounds>
</sfw>
</metadata>
<g>
	<g>
		<linearGradient id="SVGID_1_" gradientUnits="userSpaceOnUse" x1="-14.661" y1="6.1079" x2="168.644" y2="139.6415">
			<stop  offset="0" style="stop-color:#B9D98D"/>
			<stop  offset="1" style="stop-color:#29BBEE"/>
		</linearGradient>
		<path class="st0" d="M61.2,100.7c0,12.3,0,24.7,0,37c0,2,0.4,3.9,1.6,5.6c2.4,3.2,6.8,3,9.1-0.3c1.1-1.6,1.4-3.3,1.4-5.1
			c0-15.4,0-30.9,0-46.3c0-4,1.2-7.6,3.5-10.8c3.9-5.2,9-7.9,15.6-8c7.8-0.1,14.7-5.3,16.8-12.6c2.9-9.8-2.7-19.6-12.7-22.3
			c-2-0.5-3.9-0.8-6-0.8c-20.2,0-40.3,0-60.5,0c-10.2,0-18.5-7.8-18.7-18C11.3,9.4,17.9,1.9,26.8,0.3C28,0.1,29.1,0,30.2,0
			c20.5,0,41-0.1,61.5,0c13.4,0.1,25.3,4.5,35.6,13.1c10.6,8.9,17.2,20.1,19.2,33.9c1.8,12.3-0.4,24-6.5,34.8
			c-5.2,9.2-12.5,16.2-21.7,21.3c-0.6,0.3-0.9,0.7-1.2,1.4c-1.8,4.7-6.4,7.2-11.3,6.4c-4.7-0.8-8.6-4.9-8.6-9.8
			c-0.1-8.3,7.9-12.8,14.4-9.8c0.8,0.4,1.4,0.4,2.2-0.1c11.7-7.2,18.7-17.7,20.4-31.3c1.5-11.7-1.7-22.3-9.3-31.4
			c-7.6-9.2-17.4-14.4-29.2-15.7c-1.1-0.1-2.2-0.2-3.3-0.2c-20.8,0-41.6,0-62.4,0c-3.1,0-5.3,1.7-6,4.7c-0.6,2.4,0.7,5.2,3,6.5
			c1.3,0.7,2.7,0.8,4.1,0.8c20.2,0,40.3-0.2,60.5,0.1c12.7,0.1,22.3,6.1,27.8,17.5c5.1,10.4,3.9,20.8-2.7,30.3
			c-5.1,7.3-12.3,11.4-21.2,12.6c-1.4,0.2-2.8,0.1-4.1,0.3c-3.5,0.4-5.8,3-5.8,6.6c0,15.2,0,30.4,0,45.5c0,5.8-1.7,11.1-5.9,15.3
			c-8.9,8.9-23.6,6.2-29.1-5.1c-1.6-3.4-2.2-6.9-2.2-10.6c0-24.6,0-49.1,0-73.7c0-2.1,0-2.1-2.1-2.1c-4.7,0-9.4,0-14.1,0
			c-1,0-1.7,0.2-2.4,1c-4,4.1-10.5,4.1-14.6,0c-4.1-4.1-4.1-10.4-0.1-14.6c4.2-4.2,10.8-4.1,14.8,0.2c0.5,0.5,1,0.8,1.7,0.8
			c15.3,0,30.5,0,45.8,0c0.8,0,1.4-0.3,2-0.9c4.1-4.1,10.2-4.3,14.4-0.5c4.1,3.7,4.4,10,0.8,14.4c-3.6,4.3-10.6,4.8-14.7,0.8
			c-1-1-2-1.3-3.3-1.3c-4.7,0.1-9.4,0-14.1,0c-1.6,0-1.6,0.1-1.6,1.6C61.2,75.4,61.2,88.1,61.2,100.7
			C61.2,100.7,61.2,100.7,61.2,100.7z M83.3,54.9c0,2.2,1.6,3.9,3.8,4c2.1,0,3.9-1.8,4-3.9c0-2.2-1.8-4-4-4
			C85.1,50.9,83.3,52.7,83.3,54.9z M111.5,100.8c0-2.2-1.6-3.9-3.8-3.9c-2.4,0-4,1.6-4,3.9c0,2.3,1.6,3.9,3.9,3.9
			C109.8,104.7,111.5,103.1,111.5,100.8z M18.9,54.9c0,2.2,1.7,3.9,3.9,3.9c2.1,0,3.9-1.8,3.9-3.9c0-2.2-1.8-4-4-4
			C20.6,51,18.9,52.8,18.9,54.9z"/>
	</g>
	<g>
		<defs>
			<path id="SVGID_00000099643120901627033070000018175597301343419028_" d="M61.2,100.7c0,12.3,0,24.7,0,37c0,2,0.4,3.9,1.6,5.6
				c2.4,3.2,6.8,3,9.1-0.3c1.1-1.6,1.4-3.3,1.4-5.1c0-15.4,0-30.9,0-46.3c0-4,1.2-7.6,3.5-10.8c3.9-5.2,9-7.9,15.6-8
				c7.8-0.1,14.7-5.3,16.8-12.6c2.9-9.8-2.7-19.6-12.7-22.3c-2-0.5-3.9-0.8-6-0.8c-20.2,0-40.3,0-60.5,0c-10.2,0-18.5-7.8-18.7-18
				C11.3,9.4,17.9,1.9,26.8,0.3C28,0.1,29.1,0,30.2,0c20.5,0,41-0.1,61.5,0c13.4,0.1,25.3,4.5,35.6,13.1
				c10.6,8.9,17.2,20.1,19.2,33.9c1.8,12.3-0.4,24-6.5,34.8c-5.2,9.2-12.5,16.2-21.7,21.3c-0.6,0.3-0.9,0.7-1.2,1.4
				c-1.8,4.7-6.4,7.2-11.3,6.4c-4.7-0.8-8.6-4.9-8.6-9.8c-0.1-8.3,7.9-12.8,14.4-9.8c0.8,0.4,1.4,0.4,2.2-0.1
				c11.7-7.2,18.7-17.7,20.4-31.3c1.5-11.7-1.7-22.3-9.3-31.4c-7.6-9.2-17.4-14.4-29.2-15.7c-1.1-0.1-2.2-0.2-3.3-0.2
				c-20.8,0-41.6,0-62.4,0c-3.1,0-5.3,1.7-6,4.7c-0.6,2.4,0.7,5.2,3,6.5c1.3,0.7,2.7,0.8,4.1,0.8c20.2,0,40.3-0.2,60.5,0.1
				c12.7,0.1,22.3,6.1,27.8,17.5c5.1,10.4,3.9,20.8-2.7,30.3c-5.1,7.3-12.3,11.4-21.2,12.6c-1.4,0.2-2.8,0.1-4.1,0.3
				c-3.5,0.4-5.8,3-5.8,6.6c0,15.2,0,30.4,0,45.5c0,5.8-1.7,11.1-5.9,15.3c-8.9,8.9-23.6,6.2-29.1-5.1c-1.6-3.4-2.2-6.9-2.2-10.6
				c0-24.6,0-49.1,0-73.7c0-2.1,0-2.1-2.1-2.1c-4.7,0-9.4,0-14.1,0c-1,0-1.7,0.2-2.4,1c-4,4.1-10.5,4.1-14.6,0
				c-4.1-4.1-4.1-10.4-0.1-14.6c4.2-4.2,10.8-4.1,14.8,0.2c0.5,0.5,1,0.8,1.7,0.8c15.3,0,30.5,0,45.8,0c0.8,0,1.4-0.3,2-0.9
				c4.1-4.1,10.2-4.3,14.4-0.5c4.1,3.7,4.4,10,0.8,14.4c-3.6,4.3-10.6,4.8-14.7,0.8c-1-1-2-1.3-3.3-1.3c-4.7,0.1-9.4,0-14.1,0
				c-1.6,0-1.6,0.1-1.6,1.6C61.2,75.4,61.2,88.1,61.2,100.7C61.2,100.7,61.2,100.7,61.2,100.7z M83.3,54.9c0,2.2,1.6,3.9,3.8,4
				c2.1,0,3.9-1.8,4-3.9c0-2.2-1.8-4-4-4C85.1,50.9,83.3,52.7,83.3,54.9z M111.5,100.8c0-2.2-1.6-3.9-3.8-3.9c-2.4,0-4,1.6-4,3.9
				c0,2.3,1.6,3.9,3.9,3.9C109.8,104.7,111.5,103.1,111.5,100.8z M18.9,54.9c0,2.2,1.7,3.9,3.9,3.9c2.1,0,3.9-1.8,3.9-3.9
				c0-2.2-1.8-4-4-4C20.6,51,18.9,52.8,18.9,54.9z"/>
		</defs>
		<clipPath id="SVGID_00000083787656578810421380000014939177663362343582_">
			<use xlink:href="#SVGID_00000099643120901627033070000018175597301343419028_"  style="overflow:visible;"/>
		</clipPath>
		
			<linearGradient id="SVGID_00000032648982322413079940000009654081286951088572_" gradientUnits="userSpaceOnUse" x1="44.3222" y1="8.6833" x2="24.0574" y2="8.6833">
			<stop  offset="0" style="stop-color:#FFFFFF"/>
			<stop  offset="1" style="stop-color:#231815"/>
		</linearGradient>
		
			<path style="opacity:0.25;clip-path:url(#SVGID_00000083787656578810421380000014939177663362343582_);fill:url(#SVGID_00000032648982322413079940000009654081286951088572_);" d="
			M24.1,17.3c0,0-2.3-15,20.2-17.3v12.6L24.1,17.3z"/>
		
			<linearGradient id="SVGID_00000182521034504770640380000010588933638796312455_" gradientUnits="userSpaceOnUse" x1="81.1262" y1="111.7158" x2="81.5986" y2="91.2567">
			<stop  offset="0" style="stop-color:#FFFFFF"/>
			<stop  offset="1" style="stop-color:#231815"/>
		</linearGradient>
		
			<path style="opacity:0.25;clip-path:url(#SVGID_00000083787656578810421380000014939177663362343582_);fill:url(#SVGID_00000182521034504770640380000010588933638796312455_);" d="
			M91.6,85.3c0,0-15.1,0.5-18.4,19.4l-2.1,10.9h18.2L91.6,85.3z"/>
		
			<linearGradient id="SVGID_00000009574586229373885940000011904291916323060397_" gradientUnits="userSpaceOnUse" x1="51.7669" y1="113.3076" x2="51.7669" y2="142.709">
			<stop  offset="0.131" style="stop-color:#FFFFFF"/>
			<stop  offset="1" style="stop-color:#231815"/>
		</linearGradient>
		
			<path style="opacity:0.25;clip-path:url(#SVGID_00000083787656578810421380000014939177663362343582_);fill:url(#SVGID_00000009574586229373885940000011904291916323060397_);" d="
			M48.6,133.8c0,0,0.1,10.6,17.8,11.6V118l-27.2-1.7l-2.2,18.6L48.6,133.8z"/>
	</g>
</g>
</svg>
